<?xml version="1.0" standalone="no"?>
<!DOCTYPE svg PUBLIC "-//W3C//DTD SVG 20010904//EN"
 "http://www.w3.org/TR/2001/REC-SVG-20010904/DTD/svg10.dtd">
<svg version="1.0" xmlns="http://www.w3.org/2000/svg"
 width="1070.000000pt" height="1070.000000pt" viewBox="0 0 1070.000000 1070.000000"
 preserveAspectRatio="xMidYMid meet">
<metadata>
Created by potrace 1.14, written by Peter Selinger 2001-2017
</metadata>
<g transform="translate(0.000000,1070.000000) scale(0.100000,-0.100000)"
fill="#000000" stroke="none">
<path d="M3 8905 c2 -5 19 -50 36 -100 18 -49 41 -114 52 -142 10 -29 28 -78
39 -108 51 -141 63 -171 70 -190 5 -11 16 -40 24 -65 8 -25 29 -83 46 -130 36
-95 101 -276 165 -455 23 -66 66 -183 95 -260 28 -77 58 -160 66 -185 8 -25
19 -54 24 -65 5 -11 18 -47 30 -80 11 -33 24 -67 27 -75 3 -8 7 -17 7 -20 1
-3 7 -18 13 -35 6 -16 35 -95 63 -175 58 -161 118 -327 127 -350 3 -8 7 -19 9
-25 1 -5 17 -48 34 -95 30 -81 43 -115 125 -345 19 -55 39 -109 44 -120 5 -11
23 -58 39 -105 47 -131 100 -278 127 -350 25 -70 244 -674 327 -905 52 -146
72 -199 93 -250 7 -16 18 -46 23 -65 10 -32 37 -108 121 -340 17 -46 35 -87
40 -90 7 -4 1144 -5 1173 -1 9 1 28 36 33 59 2 9 20 62 40 117 20 55 38 105
39 110 2 6 6 17 9 25 4 8 25 67 46 130 22 63 62 178 89 255 27 77 52 147 55
155 2 8 13 38 23 65 10 28 19 55 20 60 1 6 23 66 47 135 25 69 47 133 51 143
3 9 9 25 13 35 3 9 7 22 9 27 3 14 103 297 111 315 3 8 7 22 9 31 2 9 9 29 15
45 7 16 13 34 15 39 1 6 19 55 39 110 20 55 38 105 39 110 2 6 6 17 9 25 3 8
20 60 39 115 18 55 35 102 38 105 3 3 6 12 7 20 2 9 21 65 43 125 23 61 43
119 45 130 3 11 9 29 14 40 5 11 26 70 46 130 20 61 41 119 46 130 8 18 146
416 153 440 2 6 8 21 13 35 6 14 32 88 58 164 25 76 51 151 57 165 6 14 12 31
14 36 14 53 101 292 109 297 6 4 7 8 4 8 -6 0 23 90 77 240 3 8 5 15 4 15 -1
0 8 25 20 55 12 30 23 60 24 65 1 6 7 24 13 40 7 17 28 76 47 133 71 202 108
308 138 391 16 45 31 88 33 95 1 6 5 18 8 26 11 24 47 133 47 139 0 4 -263 6
-585 6 -335 0 -585 -4 -584 -9 0 -5 -3 -12 -8 -15 -5 -3 -15 -26 -22 -51 -7
-25 -19 -58 -26 -75 -7 -16 -23 -59 -35 -95 -17 -53 -44 -130 -88 -250 -3 -8
-6 -19 -8 -25 -5 -18 -84 -240 -91 -255 -3 -8 -7 -19 -9 -25 -3 -13 -83 -236
-91 -255 -3 -8 -7 -19 -9 -25 -2 -10 -89 -256 -176 -500 -28 -77 -72 -201 -98
-275 -26 -74 -52 -146 -58 -160 -5 -14 -10 -27 -10 -30 0 -3 -5 -16 -10 -30
-16 -43 -84 -234 -86 -245 -3 -10 -7 -23 -29 -80 -6 -16 -13 -34 -14 -40 -1
-5 -15 -46 -31 -90 -44 -119 -98 -272 -137 -388 -20 -56 -40 -111 -44 -122 -5
-11 -21 -56 -36 -100 -15 -44 -33 -93 -40 -110 -7 -16 -17 -43 -21 -60 -4 -16
-11 -35 -15 -41 -5 -6 -10 -20 -12 -32 -2 -12 -6 -25 -10 -28 -4 -4 -7 -17 -7
-28 -1 -30 -11 -9 -55 109 -50 138 -69 189 -100 270 -15 38 -28 74 -29 80 -1
5 -4 15 -7 20 -4 6 -14 35 -24 65 -10 30 -20 60 -24 65 -3 6 -6 12 -7 15 0 3
-3 12 -7 20 -3 8 -22 60 -42 115 -20 55 -39 107 -42 115 -4 8 -7 17 -8 20 -1
3 -4 12 -7 20 -4 8 -27 74 -53 145 -26 72 -50 139 -55 150 -5 11 -18 47 -30
80 -13 33 -26 69 -31 80 -4 11 -19 54 -34 95 -15 41 -31 89 -37 105 -6 17 -17
44 -24 60 -7 17 -36 95 -64 175 -29 80 -56 154 -61 165 -8 19 -90 243 -130
355 -11 30 -23 64 -28 75 -5 11 -46 121 -91 245 -45 124 -85 234 -90 245 -4
11 -18 47 -30 80 -12 33 -26 69 -30 80 -4 11 -25 67 -46 125 -21 58 -51 141
-68 185 l-31 80 -588 0 c-391 0 -586 -3 -584 -10z"/>
<path d="M5021 8910 c-4 -3 -13 -21 -20 -40 -70 -192 -113 -318 -114 -329 -2
-13 44 -15 313 -16 173 0 322 1 331 3 9 2 24 29 37 65 11 34 41 120 66 191 25
71 46 129 46 130 0 4 -653 0 -659 -4z"/>
<path d="M6749 8916 c-2 -2 -38 -6 -79 -9 -116 -8 -288 -48 -385 -88 -16 -6
-35 -13 -40 -14 -40 -9 -282 -140 -305 -165 -3 -3 -21 -17 -40 -32 -49 -37
-109 -96 -150 -147 -38 -47 -82 -121 -73 -121 3 0 0 -6 -6 -14 -10 -12 -88
-220 -96 -256 -2 -8 -8 -35 -13 -60 -14 -59 -17 -138 -8 -170 16 -55 49 -130
56 -130 5 0 11 -8 14 -17 15 -48 128 -141 221 -183 169 -75 252 -85 795 -95
434 -8 464 -12 518 -70 39 -41 49 -100 27 -170 -7 -25 -11 -45 -8 -45 3 0 1
-6 -5 -13 -6 -7 -13 -24 -16 -37 -9 -43 -62 -183 -90 -236 -53 -102 -143 -152
-321 -178 -78 -12 -463 -14 -525 -3 -96 17 -165 53 -187 97 -18 35 -9 109 27
221 17 51 30 97 30 104 0 8 -112 11 -420 11 l-419 -1 -21 -53 c-11 -30 -20
-58 -20 -62 0 -5 -5 -21 -12 -37 -6 -15 -12 -32 -13 -38 -2 -5 -10 -31 -19
-57 -8 -26 -19 -62 -22 -80 -9 -43 -8 -177 1 -203 4 -11 12 -33 18 -50 21 -60
105 -156 182 -211 61 -42 231 -102 339 -120 21 -3 48 -8 60 -10 111 -24 1048
-23 1166 1 14 3 45 8 70 11 25 3 50 10 56 15 6 5 13 6 16 4 6 -6 47 3 138 30
30 9 62 18 70 20 73 18 314 138 340 170 7 8 17 15 22 15 15 0 189 178 222 227
15 22 41 76 57 120 17 43 34 87 39 98 4 11 27 76 50 145 23 69 45 132 48 140
3 8 6 20 7 25 1 6 10 33 20 60 21 62 26 193 10 254 -22 83 -56 134 -135 204
-70 61 -212 133 -300 152 -8 2 -17 4 -20 5 -3 1 -9 3 -15 4 -5 1 -21 5 -35 9
-14 4 -45 10 -70 12 -25 2 -45 4 -45 5 0 1 -230 7 -590 15 -289 7 -305 8 -354
36 -51 28 -66 59 -65 133 2 148 119 282 279 321 30 7 187 17 255 16 275 -2
443 -10 450 -21 4 -6 11 -12 16 -11 5 0 23 -10 41 -22 24 -16 35 -34 41 -64 9
-42 9 -56 -3 -128 l-7 -40 424 0 c274 0 423 4 424 10 0 6 3 17 7 25 12 32 37
117 43 150 8 44 9 147 1 180 -3 14 -8 36 -11 49 -3 12 -10 29 -17 37 -6 8 -8
14 -4 14 4 0 -4 15 -18 34 -27 34 -86 96 -92 96 -2 0 -30 17 -62 38 -113 74
-188 102 -378 139 -31 6 -1080 15 -1086 9z"/>
<path d="M4839 8330 c-22 -5 -40 -56 -318 -880 -28 -85 -54 -162 -58 -170 -3
-8 -7 -19 -9 -25 -1 -5 -57 -170 -124 -365 -67 -195 -123 -362 -125 -370 -2
-8 -29 -87 -59 -175 -31 -88 -56 -165 -56 -170 0 -7 113 -10 328 -9 180 1 330
2 335 3 4 0 7 8 7 17 0 9 18 68 41 131 22 64 42 123 45 132 2 9 35 108 74 221
40 113 73 210 74 215 1 6 11 35 21 65 11 30 19 57 20 60 0 3 5 19 12 35 21 56
26 70 28 80 2 6 19 60 40 120 44 131 45 134 42 139 -1 1 3 9 9 17 9 11 18 36
29 79 4 19 49 147 54 155 3 6 6 15 7 20 1 6 14 44 29 85 14 41 32 95 40 120 7
25 21 65 30 90 9 25 18 50 19 55 2 6 6 18 10 27 4 9 9 22 10 30 2 7 6 20 9 28
10 24 37 104 42 120 2 8 11 37 20 63 9 27 14 51 11 54 -7 7 -608 10 -637 3z"/>
<path d="M5186 5990 l-1148 -5 -13 -35 c-7 -19 -16 -44 -21 -55 -4 -11 -8 -24
-10 -30 -1 -5 -19 -55 -39 -110 -20 -55 -38 -107 -40 -115 -2 -8 -20 -60 -40
-115 -19 -55 -39 -114 -44 -131 l-9 -31 2246 1 2246 1 27 73 c15 40 27 74 27
75 1 4 12 37 19 55 3 9 7 22 8 27 2 6 26 78 54 160 29 83 58 169 66 193 l13
42 -76 0 c-636 4 -2370 4 -3266 0z"/>
<path d="M3755 5151 c-9 -25 -21 -55 -26 -66 -4 -11 -15 -40 -23 -65 -8 -25
-36 -103 -61 -175 -49 -138 -64 -183 -127 -365 -21 -63 -42 -122 -45 -130 -9
-24 -74 -204 -77 -215 -2 -5 -6 -17 -9 -25 -10 -24 -135 -384 -183 -525 -25
-71 -49 -139 -54 -150 -5 -11 -20 -54 -34 -95 -46 -136 -126 -365 -135 -385
-9 -19 -22 -56 -27 -80 -3 -12 -92 -263 -101 -285 -3 -8 -7 -19 -9 -25 -1 -5
-23 -68 -49 -140 -26 -71 -48 -134 -49 -140 -2 -5 -6 -17 -9 -25 -10 -24 -57
-159 -78 -225 -11 -33 -24 -69 -28 -80 -10 -21 -19 -50 -22 -63 -1 -4 -10 -29
-20 -55 -11 -26 -19 -50 -19 -52 0 -3 184 -5 409 -5 l408 0 27 73 c15 39 29
79 31 87 2 8 4 17 5 20 1 3 2 8 1 13 0 4 3 7 9 7 6 0 9 3 8 8 0 4 1 14 4 22
23 69 95 269 105 290 3 8 7 17 7 20 1 3 15 42 31 88 l30 82 696 0 697 0 13
-32 c8 -18 14 -35 15 -38 1 -6 21 -58 33 -85 18 -41 81 -195 151 -372 l73
-183 390 0 389 0 -5 22 c-3 13 -26 82 -52 153 -26 72 -51 141 -55 155 -5 14
-25 70 -44 125 -20 55 -38 107 -41 115 -4 15 -51 151 -62 180 -4 8 -7 18 -8
23 -2 4 -4 9 -5 12 -1 3 -3 8 -5 13 -1 4 -4 14 -8 22 -9 23 -56 160 -73 210
-8 25 -18 52 -21 60 -3 8 -7 20 -9 25 -1 6 -21 62 -44 125 -22 63 -52 147 -66
185 -14 39 -27 77 -29 85 -4 16 -81 235 -92 260 -3 8 -7 20 -9 25 -2 10 -85
243 -97 275 -8 19 -59 170 -98 285 -17 50 -35 99 -40 110 -8 17 -106 295 -129
365 -5 14 -29 84 -55 155 -25 72 -47 135 -49 140 -2 6 -6 17 -9 25 -3 8 -18
50 -32 93 -15 42 -35 98 -45 125 l-18 47 -565 1 -565 2 -17 -47z m604 -664
c12 -35 23 -72 26 -83 2 -10 15 -47 29 -81 13 -35 22 -63 19 -63 -3 0 -1 -6 4
-12 5 -7 20 -47 33 -88 13 -41 28 -81 33 -87 5 -7 6 -13 2 -13 -4 0 -2 -7 5
-15 7 -8 9 -15 5 -15 -4 0 -3 -6 2 -12 6 -7 14 -26 18 -43 12 -44 12 -45 15
-50 1 -3 4 -9 5 -15 1 -5 3 -11 5 -12 1 -2 3 -10 5 -18 2 -8 18 -53 35 -100
17 -47 32 -89 34 -95 1 -5 13 -41 26 -80 13 -38 25 -72 25 -75 1 -3 4 -12 7
-20 4 -8 18 -51 33 -95 14 -44 29 -87 32 -95 3 -8 7 -19 9 -25 1 -5 14 -42 27
-82 l25 -72 -471 0 c-259 1 -475 3 -478 5 -4 2 2 28 13 56 11 29 19 53 18 53
-1 0 1 7 4 15 10 30 408 1225 410 1235 5 17 18 45 21 45 2 0 13 -28 24 -63z"/>
<path d="M5148 5182 c-24 -5 -23 -13 12 -112 17 -47 40 -112 51 -145 12 -33
25 -69 31 -80 5 -12 10 -27 12 -35 1 -8 9 -35 18 -60 19 -50 55 -154 118 -335
23 -66 45 -129 50 -140 5 -11 33 -92 63 -180 31 -88 70 -200 87 -250 48 -136
170 -484 187 -535 8 -25 18 -54 23 -65 5 -11 19 -49 30 -85 12 -36 26 -74 30
-85 5 -11 23 -63 40 -115 18 -52 36 -106 42 -120 19 -45 26 -65 31 -85 5 -18
61 -179 132 -375 14 -41 33 -97 42 -125 8 -27 20 -56 27 -64 6 -8 10 -16 9
-18 -2 -1 -3 -4 -2 -5 0 -2 2 -10 4 -18 4 -18 87 -252 104 -293 6 -15 14 -39
17 -53 l6 -24 396 2 395 3 112 330 c62 182 115 337 118 345 3 8 18 53 33 100
15 47 30 90 33 95 3 6 6 15 7 20 1 6 16 51 34 100 17 50 33 97 35 105 2 8 20
62 40 120 20 58 38 112 40 120 3 8 23 67 45 130 23 63 45 129 50 145 4 17 67
203 140 415 72 212 133 390 134 395 2 6 8 23 14 38 7 16 12 32 12 37 0 5 5 21
12 37 6 15 12 30 13 33 9 32 46 142 105 315 39 116 73 217 76 225 4 17 73 215
75 215 0 0 2 7 4 15 2 8 7 25 10 36 5 17 2 22 -19 26 -15 3 -29 1 -32 -4 -3
-4 -9 -6 -14 -3 -5 3 -47 5 -92 5 -46 0 -92 0 -103 0 -76 0 -176 0 -182 -1 -5
-1 -12 -1 -18 1 -27 5 -165 4 -165 -1 0 -3 -12 -4 -27 -2 -46 7 -106 3 -120
-9 -8 -6 -12 -13 -9 -15 2 -3 -9 -44 -26 -91 -16 -48 -31 -91 -32 -97 -1 -5
-31 -95 -66 -200 -35 -104 -65 -192 -65 -195 -1 -3 -4 -12 -8 -20 -7 -17 -88
-260 -92 -275 -1 -5 -5 -19 -9 -30 -5 -11 -12 -31 -16 -45 -4 -14 -12 -34 -16
-45 -4 -11 -9 -27 -10 -35 -3 -14 -112 -335 -115 -335 0 0 -2 -7 -4 -15 -2 -8
-20 -62 -40 -120 -20 -58 -38 -116 -41 -129 -3 -13 -10 -33 -15 -43 -6 -11
-12 -27 -14 -36 -2 -9 -44 -136 -93 -282 -63 -187 -92 -259 -97 -245 -4 11
-13 36 -20 55 -20 51 -57 153 -60 165 -1 6 -5 18 -8 28 -4 9 -10 25 -14 35 -3
9 -7 22 -9 27 -1 6 -16 48 -33 95 -18 47 -45 126 -62 175 -16 50 -34 99 -39
110 -16 37 -80 218 -80 228 0 5 -6 23 -14 40 -13 29 -154 419 -160 442 -7 27
-18 62 -26 80 -5 11 -18 49 -30 85 -12 36 -27 79 -35 95 -12 28 -49 134 -50
145 0 3 -3 10 -7 15 -3 6 -13 33 -21 60 -9 28 -32 95 -52 150 -21 55 -42 117
-49 137 -6 20 -15 40 -19 44 -4 4 -7 15 -7 25 0 10 -10 21 -22 25 -28 8 -188
11 -188 3 0 -3 -12 -5 -27 -2 -54 7 -173 8 -173 1 0 -4 -6 -5 -14 -2 -20 8
-106 10 -106 3 0 -3 -12 -4 -27 -2 -40 6 -162 5 -173 -2 -4 -3 -10 -2 -12 3
-1 4 -11 6 -20 4z"/>
<path d="M8458 5182 c-15 -3 -112 -251 -99 -253 3 -1 102 -2 218 -3 182 -1
214 1 219 14 23 56 82 235 79 238 -5 5 -394 9 -417 4z"/>
<path d="M9586 5182 c-2 -1 -30 -5 -62 -8 -62 -5 -199 -36 -249 -57 -137 -56
-287 -157 -343 -231 -31 -40 -92 -165 -92 -188 0 -9 -4 -19 -9 -22 -12 -8 -35
-124 -34 -173 0 -23 11 -63 23 -89 24 -49 89 -124 108 -124 7 0 12 -4 12 -8 0
-9 122 -62 155 -67 11 -2 36 -6 55 -10 35 -5 173 -11 465 -20 194 -5 214 -9
246 -43 21 -22 25 -36 23 -72 -3 -49 -59 -218 -91 -272 -21 -36 -92 -84 -138
-93 -85 -17 -146 -21 -257 -20 -158 3 -204 11 -250 41 -33 21 -38 29 -38 62 0
20 11 71 24 113 l23 76 -280 -1 -280 -1 -37 -110 c-61 -184 -46 -283 60 -379
41 -37 118 -77 175 -91 17 -4 39 -9 50 -12 88 -21 167 -26 445 -26 261 0 384
5 450 18 14 3 41 8 60 11 103 17 265 85 355 148 82 59 184 174 184 209 0 4 7
20 16 35 8 15 39 101 69 192 47 141 54 174 51 224 -5 80 -20 113 -75 166 -78
75 -117 97 -215 125 -73 21 -104 23 -375 30 -301 8 -343 11 -379 29 -71 37
-49 176 40 250 57 48 123 59 344 59 173 0 205 -3 235 -18 54 -28 61 -42 56
-107 -3 -32 -2 -58 2 -59 4 -1 129 -2 279 -3 l271 -1 12 40 c7 22 16 52 21 67
4 15 7 58 6 96 -3 95 -43 161 -128 212 -99 59 -165 83 -269 96 -45 6 -709 12
-714 6z"/>
<path d="M8236 4570 c-43 -124 -78 -229 -79 -235 -2 -5 -5 -15 -9 -20 -3 -6
-9 -27 -13 -48 -4 -20 -11 -40 -16 -43 -5 -3 -9 -11 -9 -19 0 -8 -5 -26 -11
-42 -6 -15 -11 -30 -12 -33 0 -3 -18 -54 -39 -115 -22 -60 -41 -117 -43 -125
-2 -8 -29 -89 -61 -180 -31 -91 -57 -169 -59 -175 -1 -5 -5 -17 -8 -25 -13
-33 -47 -135 -47 -142 0 -11 423 -8 441 3 8 5 11 9 7 9 -3 0 27 98 69 218 41
119 76 224 78 232 3 8 25 74 50 145 25 72 48 137 50 145 2 8 53 161 114 340
61 178 111 327 111 330 0 3 -98 5 -218 5 l-219 1 -77 -226z"/>
<path d="M7782 3211 c-9 -20 -17 -45 -19 -56 -2 -11 -7 -29 -12 -40 -6 -11
-30 -80 -55 -152 l-45 -133 1183 0 1184 0 11 28 c32 81 129 382 123 384 -4 0
-535 2 -1181 3 l-1174 1 -15 -35z"/>
</g>
</svg>
